# xmcd CD database file
#
# Track frame offsets:
#	150
#	18559
#	38197
#	60619
#	80507
#	101566
#	122183
#	148503
#	167162
#	190659
#	211680
#	230896
#	251475
#
# Disc length: 3656 seconds
#
# Revision: 0
# Processed by: cddbd v1.5.1PL2 Copyright (c) Steve Scherf et al.
# Submitted via: CDex 1.51
#
DISCID=b20e460d
DTITLE=松たか子 - five years〜singles
DYEAR=2001
DGENRE=J-POP
TTITLE0=明日、春が来たら
TTITLE1=I STAND ALONE
TTITLE2=WIND SONG
TTITLE3=真冬のメモリーズ
TTITLE4=サクラ・フワリ
TTITLE5=ごめんね。
TTITLE6=Stay with me
TTITLE7=夢のしずく
TTITLE8=月のダンス
TTITLE9=桜のあめ、いつか
TTITLE10=優しい風
TTITLE11=コイシイヒト
TTITLE12=花のように(moonstruck version)
EXTD=YEAR: 2001
EXTT0=
EXTT1=
EXTT2=
EXTT3=
EXTT4=
EXTT5=
EXTT6=
EXTT7=
EXTT8=
EXTT9=
EXTT10=
EXTT11=
EXTT12=
PLAYORDER=
